<svg width="64" height="64" viewBox="0 0 64 64" fill="none" xmlns="http://www.w3.org/2000/svg">
<rect width="64" height="64" rx="20" fill="black" fill-opacity="0.1"/>
<path d="M32 10C28.0004 10 24.2502 11.0682 21.0176 12.934C20.7024 13.1151 20.3918 13.3057 20.086 13.5033L12.8021 42.7512L10 54L16.444 47.5556C20.4248 51.5366 25.9254 54 32 54C44.1493 54 54 44.1511 54 31.9988C54 19.8465 44.1493 10 32 10ZM41.6131 33.954L32.0494 39.4761C30.546 40.3443 28.6662 39.2596 28.6662 37.5232V26.4791C28.6662 24.7427 30.546 23.6581 32.0494 24.5263L41.6131 30.0483C43.1165 30.9165 43.1165 33.0882 41.6131 33.9564V33.954Z" fill="#4F86FF"/>
</svg>
