<svg width="16" height="16" viewBox="0 0 16 16" fill="none" xmlns="http://www.w3.org/2000/svg">
<path d="M13.0789 1.41309H2.76448C1.97444 1.41309 1.33398 2.05354 1.33398 2.84358V13.158C1.33398 13.9481 1.97444 14.5885 2.76448 14.5885H13.0789C13.869 14.5885 14.5094 13.9481 14.5094 13.158V2.84358C14.5094 2.05354 13.869 1.41309 13.0789 1.41309Z" fill="white"/>
<path d="M3.90673 2.50781H2.6093C2.50957 2.50781 2.42871 2.58867 2.42871 2.68841V3.98583C2.42871 4.08557 2.50957 4.16643 2.6093 4.16643H3.90673C4.00647 4.16643 4.08732 4.08557 4.08732 3.98583V2.68841C4.08732 2.58867 4.00647 2.50781 3.90673 2.50781Z" fill="#D0D0D0"/>
<path d="M3.90673 11.832H2.6093C2.50957 11.832 2.42871 11.9129 2.42871 12.0126V13.3101C2.42871 13.4098 2.50957 13.4906 2.6093 13.4906H3.90673C4.00647 13.4906 4.08732 13.4098 4.08732 13.3101V12.0126C4.08732 11.9129 4.00647 11.832 3.90673 11.832Z" fill="#D0D0D0"/>
<path d="M3.90673 8.41821H2.6093C2.50957 8.41821 2.42871 8.49907 2.42871 8.59881V9.89623C2.42871 9.99597 2.50957 10.0768 2.6093 10.0768H3.90673C4.00647 10.0768 4.08732 9.99597 4.08732 9.89623V8.59881C4.08732 8.49907 4.00647 8.41821 3.90673 8.41821Z" fill="#D0D0D0"/>
<path d="M3.90673 5.46387H2.6093C2.50957 5.46387 2.42871 5.54472 2.42871 5.64446V6.94189C2.42871 7.04163 2.50957 7.12248 2.6093 7.12248H3.90673C4.00647 7.12248 4.08732 7.04163 4.08732 6.94189V5.64446C4.08732 5.54472 4.00647 5.46387 3.90673 5.46387Z" fill="#D0D0D0"/>
<path d="M13.2309 2.50781H11.9335C11.8338 2.50781 11.7529 2.58867 11.7529 2.68841V3.98583C11.7529 4.08557 11.8338 4.16643 11.9335 4.16643H13.2309C13.3307 4.16643 13.4115 4.08557 13.4115 3.98583V2.68841C13.4115 2.58867 13.3307 2.50781 13.2309 2.50781Z" fill="#D0D0D0"/>
<path d="M13.2309 11.832H11.9335C11.8338 11.832 11.7529 11.9129 11.7529 12.0126V13.3101C11.7529 13.4098 11.8338 13.4906 11.9335 13.4906H13.2309C13.3307 13.4906 13.4115 13.4098 13.4115 13.3101V12.0126C13.4115 11.9129 13.3307 11.832 13.2309 11.832Z" fill="#D0D0D0"/>
<path d="M13.2309 8.41821H11.9335C11.8338 8.41821 11.7529 8.49907 11.7529 8.59881V9.89623C11.7529 9.99597 11.8338 10.0768 11.9335 10.0768H13.2309C13.3307 10.0768 13.4115 9.99597 13.4115 9.89623V8.59881C13.4115 8.49907 13.3307 8.41821 13.2309 8.41821Z" fill="#D0D0D0"/>
<path d="M13.2309 5.46387H11.9335C11.8338 5.46387 11.7529 5.54472 11.7529 5.64446V6.94189C11.7529 7.04163 11.8338 7.12248 11.9335 7.12248H13.2309C13.3307 7.12248 13.4115 7.04163 13.4115 6.94189V5.64446C13.4115 5.54472 13.3307 5.46387 13.2309 5.46387Z" fill="#D0D0D0"/>
</svg>
