<svg width="28" height="28" viewBox="0 0 28 28" fill="none" xmlns="http://www.w3.org/2000/svg">
<rect width="28" height="28" rx="14" fill="white"/>
<path d="M13.5569 4.14867L4.51545 13.1901C3.97351 13.7321 3.97351 14.6107 4.51545 15.1527C5.05739 15.6946 5.93605 15.6946 6.47798 15.1527L15.5194 6.11121C16.0614 5.56927 16.0614 4.69061 15.5194 4.14867C14.9775 3.60673 14.0988 3.60673 13.5569 4.14867Z" fill="url(#paint0_linear_25_874)"/>
<path d="M19.4611 13.4686L13.8339 19.0958C13.4915 19.4382 13.4915 19.9934 13.8339 20.3358C14.1763 20.6783 14.7315 20.6783 15.0739 20.3358L20.7011 14.7087C21.0435 14.3662 21.0435 13.8111 20.7011 13.4686C20.3587 13.1262 19.8035 13.1262 19.4611 13.4686Z" fill="url(#paint1_linear_25_874)"/>
<path d="M19.2204 13.7077L14.4323 7.19922L7.56494 14.0665L14.0735 18.8523L19.2204 13.7077Z" fill="url(#paint2_linear_25_874)"/>
<path d="M23.5762 21.4925L18.9806 16.4287L16.7944 18.6148L21.8582 23.2105C22.3382 23.6453 23.0772 23.6287 23.5358 23.1701C23.9944 22.7115 24.0134 21.9725 23.5762 21.4925Z" fill="url(#paint3_linear_25_874)"/>
<defs>
<linearGradient id="paint0_linear_25_874" x1="9.03447" y1="8.66973" x2="10.9972" y2="10.6325" gradientUnits="userSpaceOnUse">
<stop stop-color="#FF7F48"/>
<stop offset="1" stop-color="#FF4D00"/>
</linearGradient>
<linearGradient id="paint1_linear_25_874" x1="16.6487" y1="16.2821" x2="17.8891" y2="17.5225" gradientUnits="userSpaceOnUse">
<stop stop-color="#FF7F48"/>
<stop offset="1" stop-color="#FFBB80"/>
</linearGradient>
<linearGradient id="paint2_linear_25_874" x1="10.9986" y1="10.6329" x2="16.6469" y2="16.2812" gradientUnits="userSpaceOnUse">
<stop stop-color="#E64500"/>
<stop offset="1" stop-color="#FF4D00"/>
</linearGradient>
<linearGradient id="paint3_linear_25_874" x1="17.8875" y1="17.5194" x2="23.5358" y2="23.1677" gradientUnits="userSpaceOnUse">
<stop stop-color="#AEAEAE"/>
<stop offset="1" stop-color="#EAEAEA"/>
</linearGradient>
</defs>
</svg>
