<svg width="36" height="36" viewBox="0 0 36 36" fill="none" xmlns="http://www.w3.org/2000/svg">
<path d="M11.697 15.471C11.271 15.345 10.863 15.168 10.458 14.982C9.849 14.703 9.141 14.601 8.397 14.751C7.107 15.009 6.072 16.053 5.823 17.343C5.415 19.464 7.029 21.318 9.078 21.318C9.582 21.318 10.056 21.204 10.482 21.006C10.878 20.82 11.277 20.646 11.697 20.526V27.909H19.08C18.96 27.489 18.786 27.09 18.6 26.694C18.399 26.268 18.288 25.791 18.288 25.29C18.288 23.241 20.142 21.627 22.263 22.035C23.553 22.284 24.597 23.319 24.855 24.609C25.005 25.35 24.903 26.061 24.624 26.67C24.438 27.075 24.261 27.483 24.135 27.909H31.515V15.348C31.515 11.343 28.266 8.09399 24.261 8.09399H11.7V15.474L11.697 15.471Z" fill="#BBDAFF"/>
<path d="M9.426 15.471C9 15.345 8.592 15.168 8.187 14.982C7.578 14.703 6.87 14.601 6.126 14.751C4.836 15.009 3.801 16.053 3.552 17.343C3.144 19.464 4.758 21.318 6.807 21.318C7.311 21.318 7.785 21.204 8.211 21.006C8.607 20.82 9.006 20.646 9.426 20.526V27.909H16.809C16.689 27.489 16.515 27.09 16.329 26.694C16.128 26.268 16.017 25.791 16.017 25.29C16.017 23.241 17.871 21.627 19.992 22.035C21.282 22.284 22.326 23.319 22.584 24.609C22.734 25.35 22.632 26.061 22.353 26.67C22.167 27.075 21.99 27.483 21.864 27.909H29.244V15.348C29.244 11.343 25.995 8.09399 21.99 8.09399H9.426V15.474V15.471Z" fill="url(#paint0_linear_49_9520)"/>
<defs>
<linearGradient id="paint0_linear_49_9520" x1="28.497" y1="18" x2="3.81" y2="18" gradientUnits="userSpaceOnUse">
<stop stop-color="#F8FCFF"/>
<stop offset="0.99" stop-color="#E1F0FF"/>
</linearGradient>
</defs>
</svg>
