<svg width="16" height="16" viewBox="0 0 16 16" fill="none" xmlns="http://www.w3.org/2000/svg">
<rect width="16" height="16" rx="4" fill="#D4E3FF"/>
<path d="M3.49566 12.5C3.22178 12.5 2.99976 12.2775 2.99976 12.0033V3.9967C2.99976 3.72238 3.22741 3.5 3.49566 3.5H12.5039C12.7778 3.5 12.9998 3.72248 12.9998 3.9967V12.0033C12.9998 12.2776 12.7721 12.5 12.5039 12.5H3.49566ZM11.9998 9.5V4.5H3.99976V11.5L8.99976 6.5L11.9998 9.5ZM11.9998 10.9142L8.99976 7.9142L5.41397 11.5H11.9998V10.9142ZM5.99976 7.5C5.44747 7.5 4.99976 7.0523 4.99976 6.5C4.99976 5.94771 5.44747 5.5 5.99976 5.5C6.55204 5.5 6.99976 5.94771 6.99976 6.5C6.99976 7.0523 6.55204 7.5 5.99976 7.5Z" fill="#4968E4"/>
</svg>
