<svg width="36" height="36" viewBox="0 0 36 36" fill="none" xmlns="http://www.w3.org/2000/svg">
<path d="M26.016 30.2761L18 26.9581L9.984 30.2761C9.3 30.5581 8.55 30.0571 8.55 29.3161V8.46606H27.453V29.3191C27.453 30.0601 26.7 30.5611 26.019 30.2791L26.016 30.2761Z" fill="#BBDAFF"/>
<path d="M26.016 27.4561L18 24.1381L9.984 27.4561C9.3 27.7381 8.55 27.2371 8.55 26.4961V5.64307H27.453V26.4961C27.453 27.2371 26.7 27.7381 26.019 27.4561H26.016Z" fill="url(#paint0_linear_49_9525)"/>
<path d="M23.601 11.394H12.399C11.6253 11.394 10.998 12.0213 10.998 12.795C10.998 13.5688 11.6253 14.196 12.399 14.196H23.601C24.3748 14.196 25.002 13.5688 25.002 12.795C25.002 12.0213 24.3748 11.394 23.601 11.394Z" fill="#4F86FF"/>
<defs>
<linearGradient id="paint0_linear_49_9525" x1="8.547" y1="16.5901" x2="27.453" y2="16.5901" gradientUnits="userSpaceOnUse">
<stop stop-color="#F8FCFF"/>
<stop offset="0.99" stop-color="#E1F0FF"/>
</linearGradient>
</defs>
</svg>
