<svg width="20" height="20" viewBox="0 0 20 20" fill="none" xmlns="http://www.w3.org/2000/svg">
<path d="M15.9981 5.50693H15.1348V3.54455C15.1348 3.22376 14.8754 2.96436 14.5546 2.96436C14.2338 2.96436 13.9744 3.22376 13.9744 3.54455V5.50693H6.02585V3.54455C6.02585 3.22376 5.76644 2.96436 5.44565 2.96436C5.12486 2.96436 4.86545 3.22376 4.86545 3.54455V5.50693H4.00209C3.38624 5.50693 2.88525 6.00594 2.88525 6.62376V15.9208C2.88525 16.5366 3.38426 17.0376 4.00209 17.0376H15.9981C16.614 17.0376 17.115 16.5386 17.115 15.9208V6.62376C17.115 6.00792 16.6159 5.50693 15.9981 5.50693ZM15.3942 14.802C15.3942 15.0515 15.1922 15.2535 14.9427 15.2535H5.05753C4.80803 15.2535 4.60605 15.0515 4.60605 14.802V10.3347C4.60605 10.0851 4.80803 9.88317 5.05753 9.88317H14.9427C15.1922 9.88317 15.3942 10.0851 15.3942 10.3347V14.802Z" fill="white"/>
</svg>
