<svg width="36" height="36" viewBox="0 0 36 36" fill="none" xmlns="http://www.w3.org/2000/svg">
<path d="M8.745 26.4509L7.689 26.5499V6.71692C7.689 5.21392 8.907 3.99292 10.413 3.99292H25.587C27.09 3.99292 28.311 5.21092 28.311 6.71692V23.0489L8.745 26.4509Z" fill="url(#paint0_linear_49_9510)"/>
<path d="M25.32 5.49902H10.68C9.91785 5.49902 9.3 6.11687 9.3 6.87902V8.63102C9.3 9.39318 9.91785 10.011 10.68 10.011H25.32C26.0822 10.011 26.7 9.39318 26.7 8.63102V6.87902C26.7 6.11687 26.0822 5.49902 25.32 5.49902Z" fill="#BBDAFF"/>
<path d="M23.817 14.0549H12.183C11.8268 14.0549 11.538 14.3437 11.538 14.6999C11.538 15.0562 11.8268 15.3449 12.183 15.3449H23.817C24.1732 15.3449 24.462 15.0562 24.462 14.6999C24.462 14.3437 24.1732 14.0549 23.817 14.0549Z" fill="#4F86FF"/>
<path d="M23.817 16.8H12.183C11.8268 16.8 11.538 17.0888 11.538 17.445C11.538 17.8013 11.8268 18.09 12.183 18.09H23.817C24.1732 18.09 24.462 17.8013 24.462 17.445C24.462 17.0888 24.1732 16.8 23.817 16.8Z" fill="#4F86FF"/>
<path d="M9.3 26.1421V26.0221C9.3 24.8101 10.284 23.8261 11.496 23.8261H28.311V22.2151H11.496C9.396 22.2151 7.689 23.9221 7.689 26.0221V26.1421C7.689 28.2421 9.396 29.9491 11.496 29.9491H28.311V28.3381H11.496C10.284 28.3381 9.3 27.3541 9.3 26.1421Z" fill="#BBDAFF"/>
<path d="M11.496 23.8259C10.284 23.8259 9.3 24.8099 9.3 26.0219V26.1419C9.3 27.3539 10.284 28.3379 11.496 28.3379H28.311V23.8259H11.496Z" fill="#F8FCFF"/>
<path d="M25.251 31.86L24.522 31.29L23.793 31.86C23.346 32.208 22.695 31.89 22.695 31.323V25.845H26.352V31.323C26.352 31.89 25.698 32.208 25.254 31.86H25.251Z" fill="#4F86FF"/>
<defs>
<linearGradient id="paint0_linear_49_9510" x1="-25.734" y1="-65.7091" x2="59.103" y2="93.3629" gradientUnits="userSpaceOnUse">
<stop stop-color="#F8FCFF"/>
<stop offset="0.99" stop-color="#E1F0FF"/>
</linearGradient>
</defs>
</svg>
