<svg width="16" height="16" viewBox="0 0 16 16" fill="none" xmlns="http://www.w3.org/2000/svg">
<rect width="16" height="16" rx="4" fill="#D5E3FF"/>
<path d="M10 3L12.4999 5.5L12.5 12.4963C12.5 12.7745 12.2775 13 12.0033 13H3.9967C3.72238 13 3.5 12.7723 3.5 12.5041V3.4959C3.5 3.22203 3.72375 3 3.99925 3H10ZM10 6.33333H6V5.66667L7.6665 5.6665L7.66665 5H8.33335L8.333 5.6665H9.4995L9.5 4H4.5V12H11.5V6L10 5.9995V6.33333ZM6.66667 9.33335L6.6665 10.333L10 10.3334V11H6V9.33335H6.66667ZM8 9.16665C8.27615 9.16665 8.5 9.3905 8.5 9.66665C8.5 9.9428 8.27615 10.1666 8 10.1666C7.72385 10.1666 7.5 9.9428 7.5 9.66665C7.5 9.3905 7.72385 9.16665 8 9.16665ZM8 6.5C8.69035 6.5 9.25 7.05965 9.25 7.75C9.25 8.44035 8.69035 9 8 9C7.30965 9 6.75 8.44035 6.75 7.75C6.75 7.05965 7.30965 6.5 8 6.5ZM8 7.16665C7.67785 7.16665 7.41665 7.42785 7.41665 7.75C7.41665 8.07215 7.67785 8.33335 8 8.33335C8.32215 8.33335 8.58335 8.07215 8.58335 7.75C8.58335 7.42785 8.32215 7.16665 8 7.16665Z" fill="#4083FF"/>
</svg>
