<svg width="16" height="16" viewBox="0 0 16 16" fill="none" xmlns="http://www.w3.org/2000/svg">
<rect width="16" height="16" rx="4" fill="#FFD3DE"/>
<path d="M9.5 4V6H11.5V12H4.5V4H9.5ZM3.99925 3C3.72375 3 3.5 3.22203 3.5 3.4959V12.5041C3.5 12.7723 3.72238 13 3.9967 13H12.0033C12.2775 13 12.5 12.7745 12.5 12.4963L12.4999 5.5L10 3H3.99925ZM9.5004 7.8335L7.06095 6.20717C7.0281 6.18527 6.9895 6.17358 6.95 6.17358C6.83955 6.17358 6.75 6.26313 6.75 6.37359V9.6262C6.75 9.6657 6.7617 9.7043 6.7836 9.73715C6.84485 9.82905 6.96905 9.8539 7.06095 9.7926L9.5004 8.1663C9.52235 8.15165 9.5412 8.1328 9.55585 8.11085C9.61715 8.01895 9.5923 7.89475 9.5004 7.8335Z" fill="#F25F84"/>
</svg>
