<svg width="36" height="36" viewBox="0 0 36 36" fill="none" xmlns="http://www.w3.org/2000/svg">
<path d="M6.738 13.533H28.905V27.888C28.905 29.25 27.798 30.357 26.436 30.357H9.207C7.845 30.357 6.738 29.25 6.738 27.888V13.533Z" fill="#A7C9EA"/>
<path d="M6.738 11.4419H28.905V25.7969C28.905 27.1589 27.798 28.2659 26.436 28.2659H9.207C7.845 28.2659 6.738 27.1589 6.738 25.7969V11.4419Z" fill="url(#paint0_linear_49_9499)"/>
<path d="M28.572 7.86011H7.068C6.15839 7.86011 5.421 8.59749 5.421 9.50711V12.8731C5.421 13.7827 6.15839 14.5201 7.068 14.5201H28.572C29.4816 14.5201 30.219 13.7827 30.219 12.8731V9.50711C30.219 8.59749 29.4816 7.86011 28.572 7.86011Z" fill="url(#paint1_linear_49_9499)"/>
<path d="M9.867 4.86011H9.777C9.3048 4.86011 8.922 5.2429 8.922 5.71511V10.0051C8.922 10.4773 9.3048 10.8601 9.777 10.8601H9.867C10.3392 10.8601 10.722 10.4773 10.722 10.0051V5.71511C10.722 5.2429 10.3392 4.86011 9.867 4.86011Z" fill="#4F86FF"/>
<path d="M15.201 4.86011H15.111C14.6388 4.86011 14.256 5.2429 14.256 5.71511V10.0051C14.256 10.4773 14.6388 10.8601 15.111 10.8601H15.201C15.6732 10.8601 16.056 10.4773 16.056 10.0051V5.71511C16.056 5.2429 15.6732 4.86011 15.201 4.86011Z" fill="#4F86FF"/>
<path d="M20.532 4.86011H20.442C19.9698 4.86011 19.587 5.2429 19.587 5.71511V10.0051C19.587 10.4773 19.9698 10.8601 20.442 10.8601H20.532C21.0042 10.8601 21.387 10.4773 21.387 10.0051V5.71511C21.387 5.2429 21.0042 4.86011 20.532 4.86011Z" fill="#4F86FF"/>
<path d="M25.866 4.86011H25.776C25.3038 4.86011 24.921 5.2429 24.921 5.71511V10.0051C24.921 10.4773 25.3038 10.8601 25.776 10.8601H25.866C26.3382 10.8601 26.721 10.4773 26.721 10.0051V5.71511C26.721 5.2429 26.3382 4.86011 25.866 4.86011Z" fill="#4F86FF"/>
<path d="M23.328 19.152L17.793 24.687C17.298 25.182 16.497 25.182 16.002 24.687L12.669 21.357C12.312 21 12.312 20.418 12.669 20.061L13.116 19.614C13.473 19.257 14.052 19.257 14.409 19.614L16.896 22.098L21.585 17.412C21.942 17.055 22.521 17.055 22.878 17.412L23.322 17.856C23.679 18.213 23.679 18.792 23.322 19.149L23.328 19.152Z" fill="#4F86FF"/>
<defs>
<linearGradient id="paint0_linear_49_9499" x1="17.823" y1="27.9809" x2="17.823" y2="8.85289" gradientUnits="userSpaceOnUse">
<stop stop-color="#F8FCFF"/>
<stop offset="0.99" stop-color="#E1F0FF"/>
</linearGradient>
<linearGradient id="paint1_linear_49_9499" x1="17.823" y1="14.5201" x2="17.823" y2="7.86011" gradientUnits="userSpaceOnUse">
<stop stop-color="#BBDAFF"/>
<stop offset="1" stop-color="#CCE8FF"/>
</linearGradient>
</defs>
</svg>
