<svg width="18" height="18" viewBox="0 0 18 18" fill="none" xmlns="http://www.w3.org/2000/svg">
<path d="M15.6636 9C15.6636 9.64159 14.1719 10.0408 13.983 10.62C13.7941 11.1992 14.7547 12.4182 14.3911 12.9172C14.0275 13.4162 12.584 12.8709 12.0778 13.238C11.5717 13.6052 11.659 15.1432 11.0584 15.3392C10.4578 15.5353 9.64158 14.2378 8.99822 14.2378C8.35485 14.2378 7.51723 15.5263 6.93802 15.3392C6.35881 15.1521 6.4194 13.6016 5.91861 13.238C5.41782 12.8745 3.97247 13.4216 3.60535 12.9172C3.23822 12.4129 4.20772 11.2188 4.01346 10.62C3.81921 10.0212 2.33287 9.64337 2.33287 9C2.33287 8.35664 3.82455 7.95921 4.01346 7.38C4.20238 6.8008 3.24178 5.58179 3.60535 5.08278C3.96891 4.58377 5.41247 5.12911 5.91861 4.76198C6.42475 4.39486 6.33743 2.85684 6.93802 2.6608C7.53861 2.46476 8.35485 3.76218 8.99822 3.76218C9.64158 3.76218 10.4792 2.47367 11.0584 2.6608C11.6376 2.84793 11.577 4.39842 12.0778 4.76198C12.5786 5.12555 14.024 4.57842 14.3911 5.08278C14.7582 5.58713 13.7887 6.78119 13.983 7.38C14.1772 7.97882 15.6636 8.35664 15.6636 9Z" fill="#2A303C"/>
</svg>
