<svg width="36" height="36" viewBox="0 0 36 36" fill="none" xmlns="http://www.w3.org/2000/svg">
<path d="M26.991 14.1991C26.838 14.1991 26.685 14.1391 26.568 14.0221L18.93 6.38407C18.417 5.87107 17.583 5.87107 17.073 6.38407L9.435 14.0221C9.201 14.2561 8.82 14.2561 8.586 14.0221C8.352 13.7881 8.352 13.4071 8.586 13.1731L16.224 5.53507C17.205 4.55407 18.798 4.55407 19.779 5.53507L27.417 13.1731C27.651 13.4071 27.651 13.7881 27.417 14.0221C27.3 14.1391 27.147 14.1991 26.994 14.1991H26.991Z" fill="url(#paint0_linear_49_9489)"/>
<path d="M31.506 13.8241V27.6721C31.506 28.0951 31.416 28.4971 31.254 28.8601C30.798 29.8861 29.769 30.6001 28.575 30.6001H7.428C5.808 30.6001 4.497 29.2891 4.497 27.6721V13.8241C4.497 12.2041 5.811 10.8931 7.428 10.8931H28.575C30.195 10.8931 31.506 12.2071 31.506 13.8241Z" fill="url(#paint1_linear_49_9489)"/>
<path d="M28.797 13.8209V27.6689C28.797 27.7919 28.695 27.8939 28.572 27.8939H7.425C7.302 27.8939 7.2 27.7949 7.2 27.6689V13.8209C7.2 13.6979 7.302 13.5959 7.425 13.5959L28.572 13.5959C28.695 13.5959 28.797 13.6949 28.797 13.8209Z" fill="white"/>
<path d="M28.797 13.8241V14.5201H8.343C8.22 14.5201 8.118 14.6191 8.118 14.7421V27.8941H7.425C7.299 27.8941 7.2 27.7951 7.2 27.6721V13.8241C7.2 13.6981 7.299 13.5991 7.425 13.5991H28.572C28.698 13.5991 28.797 13.6981 28.797 13.8241Z" fill="#9EC4E8"/>
<path d="M24.663 16.8511H11.34C10.8926 16.8511 10.53 17.2137 10.53 17.6611C10.53 18.1084 10.8926 18.4711 11.34 18.4711H24.663C25.1103 18.4711 25.473 18.1084 25.473 17.6611C25.473 17.2137 25.1103 16.8511 24.663 16.8511Z" fill="#4F86FF"/>
<path d="M24.663 19.938H11.34C10.8926 19.938 10.53 20.3006 10.53 20.748C10.53 21.1953 10.8926 21.558 11.34 21.558H24.663C25.1103 21.558 25.473 21.1953 25.473 20.748C25.473 20.3006 25.1103 19.938 24.663 19.938Z" fill="#4F86FF"/>
<path d="M24.663 23.022H11.34C10.8926 23.022 10.53 23.3846 10.53 23.832C10.53 24.2793 10.8926 24.642 11.34 24.642H24.663C25.1103 24.642 25.473 24.2793 25.473 23.832C25.473 23.3846 25.1103 23.022 24.663 23.022Z" fill="#4F86FF"/>
<defs>
<linearGradient id="paint0_linear_49_9489" x1="18" y1="14.1991" x2="18" y2="4.80007" gradientUnits="userSpaceOnUse">
<stop stop-color="#F8FCFF"/>
<stop offset="0.99" stop-color="#E1F0FF"/>
</linearGradient>
<linearGradient id="paint1_linear_49_9489" x1="7.179" y1="31.5691" x2="28.821" y2="9.92407" gradientUnits="userSpaceOnUse">
<stop stop-color="#BBDAFF"/>
<stop offset="1" stop-color="#CCE8FF"/>
</linearGradient>
</defs>
</svg>
