<svg width="18" height="18" viewBox="0 0 18 18" fill="none" xmlns="http://www.w3.org/2000/svg">
<path d="M6.51207 12.6499C5.62455 10.9497 3.89227 9.21745 2.19207 8.32993C1.70376 8.07508 1.70376 7.36755 2.19207 7.11092C3.89227 6.2234 5.62455 4.49112 6.51207 2.79092C6.76692 2.3026 7.47445 2.3026 7.73108 2.79092C8.61861 4.49112 10.3509 6.2234 12.0511 7.11092C12.5394 7.36577 12.5394 8.0733 12.0511 8.32993C10.3509 9.21745 8.61861 10.9497 7.73108 12.6499C7.47623 13.1382 6.76871 13.1382 6.51207 12.6499Z" fill="#2A303C"/>
<path d="M13.3218 15.398C12.8923 14.5764 12.0564 13.7406 11.2349 13.3111C10.9978 13.1881 10.9978 12.8459 11.2349 12.723C12.0564 12.2934 12.8923 11.4576 13.3218 10.636C13.4448 10.399 13.7869 10.399 13.9099 10.636C14.3394 11.4576 15.1753 12.2934 15.9968 12.723C16.2339 12.8459 16.2339 13.1881 15.9968 13.3111C15.1753 13.7406 14.3394 14.5764 13.9099 15.398C13.7869 15.635 13.4448 15.635 13.3218 15.398Z" fill="#2A303C"/>
</svg>
