<svg width="16" height="16" viewBox="0 0 16 16" fill="none" xmlns="http://www.w3.org/2000/svg">
<rect width="16" height="16" rx="4" fill="#DFFFF1"/>
<path d="M3.42905 3.43854L9.71441 2.54063C9.85111 2.52111 9.97771 2.61608 9.99726 2.75277C9.99891 2.76448 9.99976 2.77629 9.99976 2.78812V13.2116C9.99976 13.3497 9.88781 13.4616 9.74976 13.4616C9.73791 13.4616 9.72611 13.4608 9.71441 13.4591L3.42905 12.5612C3.18272 12.526 2.99976 12.315 2.99976 12.0662V3.93351C2.99976 3.68469 3.18272 3.47373 3.42905 3.43854ZM3.99976 4.36716V11.6326L8.99976 12.3469V3.65287L3.99976 4.36716ZM10.4998 11.4999H11.9998V4.49986H10.4998V3.49986H12.4998C12.7759 3.49986 12.9998 3.72372 12.9998 3.99986V11.9999C12.9998 12.276 12.7759 12.4999 12.4998 12.4999H10.4998V11.4999ZM7.09976 7.99988L8.49976 9.99988H7.29976L6.49976 8.85703L5.69975 9.99988H4.49976L5.89976 7.99988L4.49976 5.99986H5.69975L6.49976 7.14273L7.29976 5.99986H8.49976L7.09976 7.99988Z" fill="#0DB16A"/>
</svg>
