<svg width="20" height="20" viewBox="0 0 20 20" fill="none" xmlns="http://www.w3.org/2000/svg">
<path d="M15.0259 13.8474L18.5948 17.4163L17.4163 18.5948L13.8474 15.0259C12.5641 16.0526 10.9367 16.6667 9.16669 16.6667C5.02669 16.6667 1.66669 13.3067 1.66669 9.16675C1.66669 5.02675 5.02669 1.66675 9.16669 1.66675C13.3067 1.66675 16.6667 5.02675 16.6667 9.16675C16.6667 10.9367 16.0525 12.5642 15.0259 13.8474ZM13.3539 13.2291C14.3729 12.1789 15 10.7464 15 9.16675C15 5.94383 12.3896 3.33341 9.16669 3.33341C5.94377 3.33341 3.33335 5.94383 3.33335 9.16675C3.33335 12.3897 5.94377 15.0001 9.16669 15.0001C10.7464 15.0001 12.1789 14.373 13.229 13.354L13.3539 13.2291Z" fill="white"/>
</svg>
