<svg width="16" height="16" viewBox="0 0 16 16" fill="none" xmlns="http://www.w3.org/2000/svg">
<rect width="16" height="16" rx="4" fill="#F5D3F8"/>
<path d="M10 6V7H8.5V9.25C8.5 9.94035 7.94035 10.5 7.25 10.5C6.55964 10.5 6 9.94035 6 9.25C6 8.55965 6.55964 8 7.25 8C7.3356 8 7.4192 8.0086 7.5 8.025V6H9.5V4H4.5V12H11.5V6H10ZM3.5 3.4959C3.5 3.22203 3.72375 3 3.99925 3H10L12.4999 5.5L12.5 12.4963C12.5 12.7745 12.2775 13 12.0033 13H3.9967C3.72238 13 3.5 12.7723 3.5 12.5041V3.4959Z" fill="#DC64E7"/>
</svg>
