<svg width="36" height="36" viewBox="0 0 36 36" fill="none" xmlns="http://www.w3.org/2000/svg">
<path d="M18.5 5C16.0457 5 13.7445 5.65547 11.7608 6.80038C11.5674 6.91156 11.3768 7.0285 11.1891 7.14978L6.71944 25.0973L5 32L8.95428 28.0455C11.397 30.4884 14.7724 32 18.5 32C25.9552 32 32 25.9564 32 18.4993C32 11.0422 25.9552 5 18.5 5ZM24.3989 19.6991L18.5303 23.0876C17.6078 23.6203 16.4543 22.9548 16.4543 21.8893V15.1122C16.4543 14.0467 17.6078 13.3811 18.5303 13.9139L24.3989 17.3024C25.3215 17.8351 25.3215 19.1677 24.3989 19.7005V19.6991Z" fill="url(#paint0_linear_49_9539)"/>
<defs>
<linearGradient id="paint0_linear_49_9539" x1="18.5" y1="5" x2="18.5" y2="32" gradientUnits="userSpaceOnUse">
<stop stop-color="#558AFF"/>
<stop offset="1" stop-color="#8DB1FF"/>
</linearGradient>
</defs>
</svg>
