<svg width="36" height="36" viewBox="0 0 36 36" fill="none" xmlns="http://www.w3.org/2000/svg">
<path d="M18 2.91602C16.593 2.91602 15.45 4.05902 15.45 5.46602C15.45 6.87302 16.593 8.01602 18 8.01602C19.407 8.01602 20.55 6.87302 20.55 5.46602C20.55 4.05902 19.407 2.91602 18 2.91602ZM18 6.66602C17.337 6.66602 16.8 6.12902 16.8 5.46602C16.8 4.80302 17.337 4.26602 18 4.26602C18.663 4.26602 19.2 4.80302 19.2 5.46602C19.2 6.12902 18.663 6.66602 18 6.66602Z" fill="#4F86FF"/>
<path d="M21.729 29.4871C21.729 29.8561 21.675 30.2131 21.576 30.5521C21.426 31.0471 21.183 31.4971 20.853 31.8841C20.172 32.7001 19.146 33.2161 18 33.2161C16.854 33.2161 15.828 32.7001 15.147 31.8841C14.82 31.4971 14.574 31.0471 14.424 30.5521C14.322 30.2131 14.271 29.8561 14.271 29.4871C14.271 27.4291 15.942 25.7581 18 25.7581C20.058 25.7581 21.729 27.4291 21.729 29.4871Z" fill="#4F86FF"/>
<path d="M25.458 15.8879V14.7269C25.458 10.6649 22.272 7.22991 18.21 7.11891C13.995 7.00191 10.542 10.3859 10.542 14.5739V15.8879C10.542 19.0139 9.549 22.0589 7.707 24.5849L6.849 25.7609H29.148L28.29 24.5849C26.448 22.0589 25.455 19.0139 25.455 15.8879H25.458Z" fill="url(#paint0_linear_49_9542)"/>
<path d="M6.813 25.761H29.184V27.105C29.184 29.01 27.639 30.555 25.734 30.555H10.266C8.361 30.555 6.816 29.01 6.816 27.105V25.761H6.813Z" fill="url(#paint1_linear_49_9542)"/>
<defs>
<linearGradient id="paint0_linear_49_9542" x1="18" y1="7.11591" x2="18" y2="25.7609" gradientUnits="userSpaceOnUse">
<stop stop-color="#F8FCFF"/>
<stop offset="0.99" stop-color="#E1F0FF"/>
</linearGradient>
<linearGradient id="paint1_linear_49_9542" x1="18" y1="30.552" x2="18" y2="25.761" gradientUnits="userSpaceOnUse">
<stop stop-color="#BBDAFF"/>
<stop offset="1" stop-color="#CCE8FF"/>
</linearGradient>
</defs>
</svg>
