<svg width="108" height="56" viewBox="0 0 108 56" fill="none" xmlns="http://www.w3.org/2000/svg">
<g clip-path="url(#clip0_3_136)">
<path d="M98.726 12.616C97.282 15.31 94.44 17.142 91.168 17.142C86.434 17.142 82.596 13.304 82.596 8.57004C82.596 5.29804 84.428 2.45605 87.122 1.01205C85.214 0.356047 83.168 -0.00195312 81.036 -0.00195312C71.352 -0.00195312 63.388 7.35804 62.432 16.79C61.66 17.018 60.844 17.142 59.998 17.142C55.264 17.142 51.426 13.304 51.426 8.57004C51.426 5.29804 53.258 2.45605 55.952 1.01205C54.044 0.356047 51.998 -0.00195312 49.866 -0.00195312C39.538 -0.00195312 31.164 8.37004 31.164 18.7C31.164 29.03 39.536 37.402 49.866 37.402C56.372 37.402 62.1 34.08 65.45 29.04C68.8 34.08 74.528 37.402 81.034 37.402C91.362 37.402 99.736 29.03 99.736 18.7C99.736 16.57 99.378 14.522 98.722 12.614L98.726 12.616Z" fill="white"/>
<path d="M18.702 0C15.302 0 12.114 0.908 9.366 2.494C9.098 2.648 8.834 2.81 8.574 2.978L2.382 27.84L0 37.402L5.478 31.924C8.862 35.308 13.538 37.402 18.702 37.402C29.03 37.402 37.404 29.03 37.404 18.7C37.404 8.37 29.03 0 18.702 0ZM26.874 20.362L18.744 25.056C17.466 25.794 15.868 24.872 15.868 23.396V14.008C15.868 12.532 17.466 11.61 18.744 12.348L26.874 17.042C28.152 17.78 28.152 19.626 26.874 20.364V20.362Z" fill="#4F86FF"/>
<path d="M104.094 37.404C106.251 37.404 108 35.6553 108 33.498C108 31.3408 106.251 29.592 104.094 29.592C101.937 29.592 100.188 31.3408 100.188 33.498C100.188 35.6553 101.937 37.404 104.094 37.404Z" fill="#4F86FF"/>
<path d="M0 41.17H4.326C7.256 41.17 8.97 42.8 8.97 45.288C8.97 47.776 7.256 49.434 4.326 49.434H2.516V52.434H0V41.17ZM4.216 47.21C5.612 47.21 6.456 46.546 6.456 45.288C6.456 44.03 5.612 43.394 4.216 43.394H2.516V47.208H4.216V47.21Z" fill="white"/>
<path d="M12.37 52.434H9.91V40.824H12.37V52.434Z" fill="white"/>
<path d="M13.462 48.384C13.462 45.924 15.08 44.14 17.402 44.14C18.466 44.14 19.24 44.514 19.724 45.162V44.332H22.184V52.432H19.724V51.602C19.24 52.252 18.466 52.624 17.402 52.624C15.08 52.624 13.462 50.842 13.462 48.38V48.384ZM19.764 48.384C19.764 47.14 18.99 46.242 17.788 46.242C16.586 46.242 15.866 47.14 15.866 48.384C15.866 49.628 16.612 50.526 17.788 50.526C18.964 50.526 19.764 49.628 19.764 48.384Z" fill="white"/>
<path d="M31.678 44.334L27.02 55.806H24.602L26.068 52.212L22.876 44.334H25.598L27.354 49.338L29.124 44.334H31.682H31.678Z" fill="white"/>
<path d="M31.94 46.7941C31.94 43.3801 34.498 40.8781 37.966 40.8781C41.062 40.8781 43.136 42.7441 43.592 45.1221H41.048C40.786 44.0441 39.638 43.1881 38.022 43.1881C35.976 43.1881 34.456 44.6941 34.456 46.7961C34.456 48.8981 35.976 50.4041 38.022 50.4041C39.64 50.4041 40.966 49.3401 41.16 48.3161H43.704C43.358 50.5821 41.092 52.7121 37.968 52.7121C34.498 52.7121 31.942 50.2101 31.942 46.7961L31.94 46.7941Z" fill="white"/>
<path d="M44.74 40.824H47.2V45.164C47.684 44.514 48.43 44.142 49.466 44.142C51.346 44.142 52.632 45.51 52.632 47.75V52.436H50.172V48.164C50.172 46.934 49.674 46.256 48.748 46.256C47.822 46.256 47.2 47.016 47.2 48.274V52.434H44.74V40.824Z" fill="white"/>
<path d="M53.82 49.02V44.334H56.28V48.604C56.28 49.834 56.778 50.512 57.704 50.512C58.63 50.512 59.252 49.752 59.252 48.494V44.334H61.712V52.434H59.252V51.604C58.768 52.254 58.022 52.626 56.986 52.626C55.106 52.626 53.82 51.258 53.82 49.018V49.02Z" fill="white"/>
<path d="M63.218 44.334H65.678V45.164C66.162 44.514 66.908 44.142 67.944 44.142C69.824 44.142 71.11 45.51 71.11 47.75V52.436H68.65V48.164C68.65 46.934 68.152 46.256 67.226 46.256C66.3 46.256 65.678 47.016 65.678 48.274V52.434H63.218V44.334Z" fill="white"/>
<path d="M72.562 53.07H75.05C75.174 53.596 75.644 53.926 76.556 53.926C77.578 53.926 78.27 53.262 78.27 52.254V51.398C77.786 52.048 77.012 52.42 75.948 52.42C73.626 52.42 72.008 50.692 72.008 48.314C72.008 45.936 73.626 44.14 75.948 44.14C77.012 44.14 77.786 44.514 78.27 45.162V44.332H80.73V52.28C80.73 54.478 78.974 55.998 76.556 55.998C74.138 55.998 72.824 54.63 72.562 53.068V53.07ZM78.312 48.314C78.312 47.112 77.538 46.24 76.336 46.24C75.134 46.24 74.414 47.11 74.414 48.314C74.414 49.518 75.16 50.388 76.336 50.388C77.512 50.388 78.312 49.518 78.312 48.314Z" fill="white"/>
<path d="M86.12 52.628C83.618 52.628 81.822 50.846 81.822 48.384C81.822 45.922 83.618 44.14 86.12 44.14C88.234 44.14 89.824 45.494 90.114 47.222H87.626C87.432 46.67 86.894 46.282 86.12 46.282C84.972 46.282 84.226 47.166 84.226 48.382C84.226 49.598 84.972 50.482 86.12 50.482C86.88 50.482 87.446 50.096 87.668 49.514H90.156C89.742 51.394 88.166 52.624 86.12 52.624V52.628Z" fill="white"/>
<path d="M91.138 40.824H93.598V45.164C94.082 44.514 94.828 44.142 95.864 44.142C97.744 44.142 99.03 45.51 99.03 47.75V52.436H96.57V48.164C96.57 46.934 96.072 46.256 95.146 46.256C94.22 46.256 93.598 47.016 93.598 48.274V52.434H91.138V40.824Z" fill="white"/>
<path d="M108 44.334L103.342 55.806H100.924L102.39 52.212L99.198 44.334H101.92L103.676 49.338L105.446 44.334H108.004H108Z" fill="white"/>
</g>
<defs>
<clipPath id="clip0_3_136">
<rect width="108" height="56" fill="white"/>
</clipPath>
</defs>
</svg>
