<svg width="64" height="64" viewBox="0 0 64 64" fill="none" xmlns="http://www.w3.org/2000/svg">
<g opacity="0.4">
<path d="M32 13.2988C28.6 13.2988 25.412 14.2068 22.664 15.7928C22.396 15.9468 22.132 16.1088 21.872 16.2768L15.68 41.1388L13.298 50.7008L18.776 45.2228C22.16 48.6068 26.836 50.7008 32 50.7008C42.328 50.7008 50.702 42.3288 50.702 31.9988C50.702 21.6688 42.328 13.2988 32 13.2988ZM40.172 33.6608L32.042 38.3548C30.764 39.0928 29.166 38.1708 29.166 36.6948V27.3068C29.166 25.8308 30.764 24.9088 32.042 25.6468L40.172 30.3408C41.45 31.0788 41.45 32.9248 40.172 33.6628V33.6608Z" fill="#4F86FF"/>
</g>
</svg>
