<svg width="60" height="61" viewBox="0 0 60 61" fill="none" xmlns="http://www.w3.org/2000/svg">
<g clip-path="url(#clip0_217_2775)">
<path d="M23.7 27.9398C23.7 30.4998 25.78 32.5798 28.34 32.5798C30.9 32.5798 32.98 30.4998 32.98 27.9398C32.98 25.3798 30.9 23.2998 28.34 23.2998C25.78 23.2998 23.7 25.3798 23.7 27.9398Z" fill="#F5D03A"/>
<path d="M12.83 11.9698C9.90002 9.54985 8.97001 9.06985 6.55001 8.42985C3.33001 7.58985 4.30001 3.43985 4.30001 3.43985C4.30001 3.43985 8.45002 2.46985 9.29002 5.68985C9.92002 8.10985 10.41 9.03985 12.83 11.9698Z" fill="#F5D03A"/>
<path d="M23.58 8.48008C28.03 4.03008 35.26 4.03008 39.71 8.48008L39.07 9.12008C35.35 5.40008 29.32 5.40008 25.6 9.12008C21.88 12.8401 21.88 18.8701 25.6 22.5901L23.58 24.6101C19.13 20.1601 19.13 12.9301 23.58 8.48008Z" fill="#F5D03A"/>
<path d="M39.72 8.47992C38.89 7.64992 37.55 7.64992 36.72 8.47992C35.89 9.30992 35.89 10.6499 36.72 11.4799C37.55 12.3099 38.9 12.3099 39.72 11.4799C40.55 10.6499 40.55 9.30992 39.72 8.47992Z" fill="#F5D03A"/>
<path d="M14.83 5.19039C17.55 2.47039 21.95 2.47039 24.67 5.19039L24.28 5.58039C22.01 3.31039 18.33 3.31039 16.06 5.58039C13.79 7.85039 13.79 11.5304 16.06 13.8004L14.83 15.0304C12.11 12.3104 12.11 7.91039 14.83 5.19039Z" fill="#F5D03A"/>
<path d="M24.67 5.19012C24.16 4.68012 23.34 4.68012 22.84 5.19012C22.34 5.69012 22.34 6.52012 22.84 7.02012C23.35 7.53012 24.17 7.53012 24.67 7.02012C25.18 6.51012 25.18 5.69012 24.67 5.19012Z" fill="#F5D03A"/>
<path d="M11.69 4.58969C13.57 2.70969 16.61 2.70969 18.49 4.58969L18.22 4.85969C16.65 3.28969 14.11 3.28969 12.54 4.85969C10.97 6.42969 10.97 8.96969 12.54 10.5397L11.69 11.3897C9.80999 9.50969 9.80999 6.46969 11.69 4.58969Z" fill="#F5D03A"/>
<path d="M18.5 4.58965C18.15 4.23965 17.58 4.23965 17.23 4.58965C16.88 4.93965 16.88 5.49965 17.23 5.84965C17.58 6.19965 18.15 6.19965 18.5 5.84965C18.85 5.49965 18.85 4.92965 18.5 4.57965V4.58965Z" fill="#F5D03A"/>
<path d="M9.38001 22.6801C4.93001 27.1301 4.93001 34.3601 9.38001 38.8101L10.02 38.1701C6.30001 34.4501 6.30001 28.4201 10.02 24.7001C13.74 20.9801 19.77 20.9801 23.49 24.7001L25.51 22.6801C21.06 18.2301 13.83 18.2201 9.38001 22.6801Z" fill="#F5D03A"/>
<path d="M9.38 38.8198C8.55 37.9898 8.55 36.6498 9.38 35.8198C10.21 34.9898 11.55 34.9898 12.38 35.8198C13.21 36.6498 13.21 37.9898 12.38 38.8198C11.55 39.6498 10.21 39.6498 9.38 38.8198Z" fill="#F5D03A"/>
<path d="M7.31999 30.8698C6.64999 30.1998 6.64999 29.1198 7.31999 28.4498C7.98999 27.7798 9.06999 27.7798 9.73999 28.4498C10.41 29.1198 10.41 30.1998 9.73999 30.8698C9.06999 31.5398 7.98999 31.5398 7.31999 30.8698Z" fill="#F5D03A"/>
<path d="M6.07999 13.9304C3.35999 16.6504 3.35999 21.0504 6.07999 23.7704L6.46999 23.3804C4.19999 21.1104 4.19999 17.4304 6.46999 15.1704C8.73999 12.9004 12.42 12.9004 14.69 15.1704L15.92 13.9404C13.2 11.2204 8.79999 11.2204 6.07999 13.9404V13.9304Z" fill="#F5D03A"/>
<path d="M6.08 23.7701C5.58 23.2701 5.57 22.4501 6.08 21.9401C6.58 21.4301 7.41 21.4301 7.91 21.9401C8.42 22.4501 8.41 23.2701 7.91 23.7701C7.4 24.2801 6.58 24.2801 6.08 23.7701Z" fill="#F5D03A"/>
<path d="M5.48 10.7899C3.6 12.6699 3.6 15.7199 5.48 17.5899L5.75 17.3199C4.18 15.7499 4.18 13.2099 5.75 11.6399C7.32 10.0699 9.86 10.0699 11.43 11.6399L12.28 10.7899C10.4 8.90988 7.35 8.90988 5.48 10.7899Z" fill="#F5D03A"/>
<path d="M5.48 17.5999C5.13 17.2499 5.13 16.6799 5.48 16.3299C5.83 15.9799 6.4 15.9799 6.74 16.3299C7.09 16.6799 7.09 17.2399 6.74 17.5999C6.39 17.9499 5.82 17.9499 5.48 17.5999Z" fill="#F5D03A"/>
<path d="M30.21 31.8696L32.73 29.3396L8.96001 7.30957L8.17001 8.09957L30.21 31.8696Z" fill="#F5D03A"/>
<path d="M54.51 2.51023C53.99 4.38023 53.35 6.70023 52.36 9.17023C51.87 10.5702 49.3 17.4202 44.43 21.9402C49.47 18.8002 53.32 12.9602 54.35 9.99023C54.35 9.98023 54.35 9.96023 54.37 9.94023C55.42 7.27023 55.88 4.24023 55.64 1.84023C55.63 1.72023 55.62 1.60023 55.6 1.48023C55.51 0.840234 55.39 0.350234 55.28 -0.00976562C55.04 0.680234 54.76 1.66023 54.53 2.50023L54.51 2.51023Z" fill="#F5D03A"/>
<path d="M59.15 8.13996C58.55 9.21996 57.81 10.55 56.83 11.93C56.32 12.72 53.71 16.56 50.03 18.62C53.6 17.43 56.85 14.41 57.93 12.73C57.93 12.73 57.94 12.71 57.95 12.7C58.99 11.22 59.73 9.41996 59.94 7.89996C59.95 7.81996 59.96 7.74996 59.97 7.66996C60.01 7.26996 60.01 6.93996 59.99 6.70996C59.74 7.09996 59.42 7.65996 59.15 8.14996V8.13996Z" fill="#F5D03A"/>
<path d="M45.37 7.57969C45.5 8.80969 45.66 10.3297 45.65 12.0097C45.68 12.9497 45.76 17.5897 43.93 21.3997C46.17 18.3797 47.09 14.0297 47.01 12.0397C47.01 12.0297 47.01 12.0197 47.01 12.0097C47.01 10.1897 46.58 8.28969 45.87 6.92969C45.84 6.85969 45.8 6.79969 45.76 6.72969C45.56 6.37969 45.37 6.10969 45.22 5.92969C45.24 6.38969 45.3 7.02969 45.36 7.58969L45.37 7.57969Z" fill="#F5D03A"/>
<path d="M2.51 54.5702C4.38 54.0502 6.7 53.4102 9.17 52.4202C10.57 51.9302 17.42 49.3602 21.94 44.4902C18.8 49.5302 12.96 53.3802 9.99001 54.4102C9.98001 54.4102 9.96 54.4102 9.94 54.4302C7.27 55.4802 4.24 55.9402 1.84 55.7002C1.72 55.6902 1.6 55.6702 1.48 55.6602C0.840003 55.5702 0.350006 55.4502 -0.00999451 55.3402C0.680005 55.1002 1.66 54.8202 2.5 54.5902L2.51 54.5702Z" fill="#F5D03A"/>
<path d="M8.14 59.2098C9.22 58.6098 10.55 57.8698 11.93 56.8898C12.72 56.3798 16.56 53.7698 18.62 50.0898C17.43 53.6598 14.41 56.9098 12.73 57.9898C12.73 57.9898 12.71 57.9898 12.71 58.0098C11.22 59.0498 9.42 59.7998 7.9 59.9998C7.82 60.0098 7.74999 60.0198 7.66999 60.0298C7.26999 60.0698 6.94 60.0698 6.71 60.0498C7.1 59.7998 7.66 59.4798 8.15 59.2098H8.14Z" fill="#F5D03A"/>
<path d="M7.57999 45.4302C8.79999 45.5602 10.33 45.7202 12.01 45.7102C12.95 45.7402 17.59 45.8202 21.4 43.9902C18.38 46.2302 14.03 47.1502 12.04 47.0702C12.03 47.0702 12.02 47.0702 12.01 47.0702C10.19 47.0702 8.28999 46.6402 6.92999 45.9302C6.85999 45.9002 6.78999 45.8602 6.72999 45.8202C6.37999 45.6202 6.10999 45.4302 5.92999 45.2802C6.38999 45.3002 7.02999 45.3602 7.58999 45.4202L7.57999 45.4302Z" fill="#F5D03A"/>
</g>
<defs>
<clipPath id="clip0_217_2775">
<rect width="60" height="60.06" fill="white" transform="matrix(-1 0 0 1 60 0)"/>
</clipPath>
</defs>
</svg>
