<svg width="54" height="54" viewBox="0 0 54 54" fill="none" xmlns="http://www.w3.org/2000/svg">
<path d="M27 24.0897C32.234 24.0897 36.477 19.8467 36.477 14.6127C36.477 9.37874 32.234 5.13574 27 5.13574C21.766 5.13574 17.523 9.37874 17.523 14.6127C17.523 19.8467 21.766 24.0897 27 24.0897Z" fill="white"/>
<path d="M44.5688 48.9294C43.2296 48.9294 42.1388 47.844 42.1388 46.4994C42.1388 38.4264 35.5724 31.86 27.4994 31.86C19.4264 31.86 12.86 38.4264 12.86 46.4994C12.86 47.8386 11.7746 48.9294 10.43 48.9294C9.0854 48.9294 8 47.844 8 46.4994C8 35.748 16.748 27 27.4994 27C38.2508 27 46.9988 35.748 46.9988 46.4994C46.9988 47.8386 45.9134 48.9294 44.5688 48.9294Z" fill="white"/>
</svg>
